<?xml version="1.0" standalone="no"?>
<!DOCTYPE svg PUBLIC "-//W3C//DTD SVG 20010904//EN"
 "http://www.w3.org/TR/2001/REC-SVG-20010904/DTD/svg10.dtd">
<svg version="1.0" xmlns="http://www.w3.org/2000/svg"
 width="260.000000pt" height="260.000000pt" viewBox="0 0 260.000000 260.000000"
 preserveAspectRatio="xMidYMid meet">
<metadata>
Created by potrace 1.14, written by Peter Selinger 2001-2017
</metadata>
<g transform="translate(0.000000,260.000000) scale(0.100000,-0.100000)"
fill="#000000" stroke="none">
<path d="M405 2563 c-187 -17 -302 -105 -352 -268 -17 -56 -18 -120 -18 -1000
0 -878 1 -944 18 -1000 34 -113 111 -198 218 -242 41 -17 102 -18 1039 -18
l995 0 57 28 c75 37 138 99 174 173 l29 59 0 1000 0 1000 -27 57 c-56 119
-163 191 -309 208 -77 9 -1728 12 -1824 3z m239 -866 c16 -45 43 -120 61 -167
17 -47 53 -145 80 -217 27 -73 52 -133 55 -133 12 0 220 547 220 579 0 20 5
21 200 21 l200 0 0 -24 c0 -20 -6 -24 -46 -29 -82 -9 -78 9 -78 -389 1 -194 4
-363 8 -374 7 -22 37 -38 94 -49 23 -5 32 -12 32 -26 0 -18 -10 -19 -250 -19
-238 0 -250 1 -250 19 0 15 12 21 60 30 94 19 90 0 90 408 0 194 -3 353 -8
353 -9 0 -147 -348 -286 -718 l-31 -83 -38 3 -39 3 -63 175 c-34 96 -95 263
-135 370 -40 107 -77 210 -83 228 -6 17 -14 32 -19 32 -11 0 -10 -559 2 -639
11 -76 33 -104 100 -126 31 -10 50 -23 53 -35 5 -19 -1 -20 -190 -20 l-194 0
3 22 c2 17 12 24 38 29 53 8 80 27 97 67 23 56 22 651 -1 687 -20 30 -50 47
-96 54 -26 5 -36 12 -38 29 l-3 22 213 0 213 0 29 -83z m1581 68 c129 -28 195
-99 195 -214 0 -52 -6 -74 -31 -121 -57 -107 -149 -150 -339 -159 l-125 -6 -1
-143 c-2 -134 -1 -145 20 -167 12 -14 39 -27 66 -32 36 -7 46 -13 48 -31 l3
-22 -245 0 c-237 0 -246 1 -246 20 0 14 9 21 38 26 42 8 73 22 84 38 12 17 10
714 -2 736 -10 20 -59 40 -96 40 -19 0 -24 5 -24 25 l0 25 293 0 c219 0 309
-4 362 -15z"/>
<path d="M1920 1525 l0 -207 69 4 c129 7 185 71 184 209 -1 135 -51 189 -185
197 l-68 4 0 -207z"/>
</g>
</svg>
